<mxfile host="www.draw.io" modified="2020-03-01T04:22:10.512Z" agent="Mozilla/5.0 (Windows NT 10.0; Win64; x64) AppleWebKit/537.36 (KHTML, like Gecko) Chrome/80.0.3987.122 Safari/537.36" etag="S60pNYgypHmln_5ZHiAl" version="12.7.9" type="github">
  <diagram id="C5RBs43oDa-KdzZeNtuy" name="Page-1">
    <mxGraphModel dx="1040" dy="746" grid="1" gridSize="10" guides="1" tooltips="1" connect="1" arrows="1" fold="1" page="1" pageScale="1" pageWidth="827" pageHeight="1169" math="0" shadow="0">
      <root>
        <mxCell id="WIyWlLk6GJQsqaUBKTNV-0" />
        <mxCell id="WIyWlLk6GJQsqaUBKTNV-1" parent="WIyWlLk6GJQsqaUBKTNV-0" />
        <mxCell id="1DFng5kRcM6JJF5bfMGm-0" value="시작" style="strokeWidth=2;html=1;shape=mxgraph.flowchart.terminator;whiteSpace=wrap;" parent="WIyWlLk6GJQsqaUBKTNV-1" vertex="1">
          <mxGeometry x="785" y="30" width="100" height="60" as="geometry" />
        </mxCell>
        <mxCell id="1DFng5kRcM6JJF5bfMGm-1" value="&lt;br&gt;id,password&lt;br&gt;입력" style="html=1;strokeWidth=2;shape=manualInput;whiteSpace=wrap;rounded=1;size=26;arcSize=11;" parent="WIyWlLk6GJQsqaUBKTNV-1" vertex="1">
          <mxGeometry x="785" y="130" width="100" height="60" as="geometry" />
        </mxCell>
        <mxCell id="1DFng5kRcM6JJF5bfMGm-2" value="db에 해당&lt;br&gt;내용이 있는가?" style="strokeWidth=2;html=1;shape=mxgraph.flowchart.decision;whiteSpace=wrap;" parent="WIyWlLk6GJQsqaUBKTNV-1" vertex="1">
          <mxGeometry x="780" y="220" width="110" height="100" as="geometry" />
        </mxCell>
        <mxCell id="1DFng5kRcM6JJF5bfMGm-5" value="&#39;아이디 혹은 비밀번호가 잘못되었거나&lt;br&gt;존재하지 않는 계정입니다.&#39;" style="strokeWidth=2;html=1;shape=mxgraph.flowchart.document2;whiteSpace=wrap;size=0.25;" parent="WIyWlLk6GJQsqaUBKTNV-1" vertex="1">
          <mxGeometry x="985" y="240" width="210" height="60" as="geometry" />
        </mxCell>
        <mxCell id="1DFng5kRcM6JJF5bfMGm-8" value="" style="rounded=1;whiteSpace=wrap;html=1;absoluteArcSize=1;arcSize=14;strokeWidth=2;" parent="WIyWlLk6GJQsqaUBKTNV-1" vertex="1">
          <mxGeometry x="550" y="440" width="100" height="70" as="geometry" />
        </mxCell>
        <mxCell id="1DFng5kRcM6JJF5bfMGm-10" value="방 목록 출력" style="shape=parallelogram;html=1;strokeWidth=2;perimeter=parallelogramPerimeter;whiteSpace=wrap;rounded=1;arcSize=12;size=0.23;" parent="WIyWlLk6GJQsqaUBKTNV-1" vertex="1">
          <mxGeometry x="785" y="350" width="100" height="60" as="geometry" />
        </mxCell>
        <mxCell id="1DFng5kRcM6JJF5bfMGm-11" value="&lt;br&gt;방 번호 선택" style="html=1;strokeWidth=2;shape=manualInput;whiteSpace=wrap;rounded=1;size=26;arcSize=11;" parent="WIyWlLk6GJQsqaUBKTNV-1" vertex="1">
          <mxGeometry x="785" y="440" width="100" height="60" as="geometry" />
        </mxCell>
      </root>
    </mxGraphModel>
  </diagram>
</mxfile>
